<svg width="20" height="20" xmlns="http://www.w3.org/2000/svg"><path stroke="null" fill="#fff" d="M15.358 10.571a4.357 4.424 0 012.203-3.847c-.687-.857-1.72-1.624-2.86-1.85-1.554-.307-2.44.205-3.014.41s-1.335.39-1.335.39-.761-.184-1.335-.39c-.573-.205-1.46-.717-3.013-.41S3.093 6.498 2.54 7.671c-1.063 2.265-.626 5.113.126 7.162.75 2.05 2.736 4.914 4.275 5.144 1.095.164 1.773-.605 3.41-.8 1.637.195 2.315.964 3.41.8 1.54-.23 3.524-3.094 4.275-5.144l.055-.154a4.359 4.426 0 01-2.734-4.108zM9.963 4.5s1.523.205 2.905-1.389.99-3.102.99-3.102-1.523-.205-2.906 1.389S9.963 4.5 9.963 4.5z"/></svg>